<?xml version="1.0" encoding="UTF-8"?>
<svg version="1.1" xmlns="http://www.w3.org/2000/svg" width="500" height="500">
<path d="M0 0 C7.68629663 3.2358114 13.28436666 10.2636552 18.54296875 16.54296875 C19.96178299 18.20640613 21.44942077 19.74540414 23.015625 21.26953125 C24.005625 20.93953125 24.995625 20.60953125 26.015625 20.26953125 C25.47803354 16.26948632 23.54733866 14.45814463 20.703125 11.70703125 C19.53330078 10.56041016 19.53330078 10.56041016 18.33984375 9.390625 C16.30696476 7.53540939 14.25093794 5.87056775 12.015625 4.26953125 C12.345625 2.94953125 12.675625 1.62953125 13.015625 0.26953125 C15.28587468 0.18855801 17.55694575 0.13035421 19.828125 0.08203125 C21.09269531 0.04722656 22.35726562 0.01242188 23.66015625 -0.0234375 C27.015625 0.26953125 27.015625 0.26953125 28.96484375 1.65625 C30.015625 3.26953125 30.015625 3.26953125 30.015625 5.26953125 C30.57636719 5.51058594 31.13710937 5.75164062 31.71484375 6 C34.50021989 7.53692232 36.53542633 9.37822558 38.828125 11.58203125 C40.04435547 12.72091797 40.04435547 12.72091797 41.28515625 13.8828125 C43.015625 16.26953125 43.015625 16.26953125 43.1484375 18.6796875 C41.52874371 22.38264261 39.00626041 24.66704623 36.078125 27.39453125 C31.70691419 31.52825588 31.70691419 31.52825588 28.015625 36.26953125 C28.23231586 40.72613994 29.98025897 42.70200525 33.140625 45.70703125 C33.94757813 46.48304688 34.75453125 47.2590625 35.5859375 48.05859375 C38.20901294 50.44550805 40.89438168 52.71773952 43.703125 54.8828125 C45.31941129 56.59049593 45.62527489 57.9811037 46.015625 60.26953125 C41.17906555 61.88171773 36.92325197 61.59421205 32.015625 60.26953125 C25.05382446 55.97801037 19.38168688 49.83399092 13.79296875 43.921875 C12.17595523 42.0425702 12.17595523 42.0425702 10.015625 42.26953125 C11.23567891 48.89268105 16.79598014 53.43155709 22.015625 57.26953125 C21.355625 58.58953125 20.695625 59.90953125 20.015625 61.26953125 C7.08668909 61.05852488 7.08668909 61.05852488 3.578125 57.64453125 C1.2157466 54.92706021 1.2157466 54.92706021 -2.109375 55.20703125 C-5.28270549 56.37978382 -6.82769341 57.6981032 -8.984375 60.26953125 C-9.974375 59.93953125 -10.964375 59.60953125 -11.984375 59.26953125 C-12.46869302 51.8298684 -12.06123537 47.51222369 -7.984375 41.26953125 C-7.984375 39.94953125 -7.984375 38.62953125 -7.984375 37.26953125 C-8.974375 36.93953125 -9.964375 36.60953125 -10.984375 36.26953125 C-12.98296875 32.27234375 -12.64010124 27.60200821 -11.984375 23.26953125 C-10.60394194 20.9322071 -9.03453024 19.02672054 -7.27734375 16.96484375 C-5.76579443 15.29015821 -5.76579443 15.29015821 -5.734375 12.76953125 C-7.66541007 8.90746111 -10.27076954 5.61382177 -12.984375 2.26953125 C-8.5107875 -2.40740114 -6.05139645 -1.73462804 0 0 Z M14.015625 21.26953125 C13.36323342 22.66231142 12.71901948 24.05892337 12.078125 25.45703125 C11.53865234 26.62298828 11.53865234 26.62298828 10.98828125 27.8125 C10.00597059 30.29391929 9.45880956 32.64307961 9.015625 35.26953125 C10.80444236 36.27461926 12.59677196 37.27345861 14.390625 38.26953125 C15.38835937 38.82640625 16.38609375 39.38328125 17.4140625 39.95703125 C19.82758009 41.41967393 19.82758009 41.41967393 22.015625 41.26953125 C22.90967714 36.28838364 23.49024776 31.29973885 24.015625 26.26953125 C23.108125 25.81578125 22.200625 25.36203125 21.265625 24.89453125 C18.84895833 23.68619792 16.43229167 22.47786458 14.015625 21.26953125 Z M-0.109375 26.95703125 C-0.83382812 27.64152344 -1.55828125 28.32601562 -2.3046875 29.03125 C-4.29371449 31.6817441 -4.33579696 33.03304839 -3.984375 36.26953125 C-0.87995469 34.87908135 1.3812693 33.25381527 3.828125 30.89453125 C4.45332031 30.30929688 5.07851562 29.7240625 5.72265625 29.12109375 C7.2804061 27.33551504 7.2804061 27.33551504 6.71484375 25.04296875 C6.48410156 24.45773438 6.25335938 23.8725 6.015625 23.26953125 C3.00997402 23.26953125 2.00951509 24.90269516 -0.109375 26.95703125 Z M0.015625 43.26953125 C-0.85873918 45.00528774 -0.85873918 45.00528774 -0.984375 47.26953125 C0.73330082 50.06264818 0.73330082 50.06264818 3.015625 52.26953125 C3.675625 52.26953125 4.335625 52.26953125 5.015625 52.26953125 C4.5176413 48.53465348 4.14070744 46.4571549 2.015625 43.26953125 C1.355625 43.26953125 0.695625 43.26953125 0.015625 43.26953125 Z " fill="#FAFAFA" transform="translate(154.984375,213.73046875)"/>
<path d="M0 0 C1.45986328 -0.00966797 1.45986328 -0.00966797 2.94921875 -0.01953125 C9.69012332 0.1709923 13.14652811 1.61940132 17.92724609 6.40625 C18.40500488 6.9321875 18.88276367 7.458125 19.375 8 C19.87 8.495 19.87 8.495 20.375 9 C20.875 11.5625 20.875 11.5625 20.375 15 C18.7421875 16.96484375 18.7421875 16.96484375 16.75 19 C14.81853562 20.96704883 14.81853562 20.96704883 13.375 23 C13.84212449 27.7646698 16.43467539 30.37359965 19.375 34 C19.375 34.99 19.375 35.98 19.375 37 C16.46610107 38.45444946 14.60146276 38.41021042 11.375 38 C8.7421875 35.59375 8.7421875 35.59375 6.25 32.5 C3.85341872 29.4423924 3.85341872 29.4423924 1.375 27 C0.055 27 -1.265 27 -2.625 27 C-3.285 30.3 -3.945 33.6 -4.625 37 C-9.625 38 -9.625 38 -12.625 36 C-12.96557617 34.12060547 -12.96557617 34.12060547 -12.91796875 31.8671875 C-12.90830078 31.06152344 -12.89863281 30.25585938 -12.88867188 29.42578125 C-12.86353516 28.58402344 -12.83839844 27.74226563 -12.8125 26.875 C-12.79896484 26.02550781 -12.78542969 25.17601562 -12.77148438 24.30078125 C-12.73608219 22.20025163 -12.68227401 20.10004707 -12.625 18 C-9.73814507 16.55657253 -7.02533313 16.6883965 -3.8125 16.5 C0.34537801 16.25464577 4.31113602 15.9288832 8.375 15 C8.03055119 12.52733235 8.03055119 12.52733235 7.375 10 C3.57740339 8.1012017 -1.28633244 8.62439275 -5.50390625 8.48242188 C-11.41108631 8.21391369 -11.41108631 8.21391369 -13.625 6 C-13.375 3.4375 -13.375 3.4375 -12.625 1 C-8.80251528 -0.91124236 -4.1916826 -0.10302971 0 0 Z " fill="#FAFAFA" transform="translate(226.625,226)"/>
<path d="M0 0 C5.13975033 2.34411043 9.50477224 5.35769551 12.015625 10.58203125 C13.76800343 15.8854849 13.81673941 21.8451659 11.83984375 27.078125 C7.67111627 31.7847528 2.68173955 36.9781013 -3.72265625 37.640625 C-9.53074838 37.45912212 -14.63707921 35.48426245 -18.96484375 31.58203125 C-23.71560899 26.29708906 -24.26729722 22.36346292 -24.41015625 15.265625 C-24.44753906 14.04875 -24.48492187 12.831875 -24.5234375 11.578125 C-24.09765625 8.265625 -24.09765625 8.265625 -22.375 6 C-15.65690733 0.88364812 -8.44799079 -2.95758337 0 0 Z M-12.09765625 9.265625 C-15.38043677 12.54840552 -15.93959678 15.68190033 -16.09765625 20.265625 C-14.80346842 24.22431719 -13.72195305 25.83555387 -10.28515625 28.203125 C-6.55681083 29.44590681 -4.81234037 29.53019832 -1.09765625 28.265625 C1.73595209 25.99873833 3.50205746 24.2796836 4.83984375 20.890625 C4.92622012 17.26281732 4.25054311 14.6361234 2.90234375 11.265625 C-2.05611533 6.17315352 -6.28065204 4.82633231 -12.09765625 9.265625 Z " fill="#F4F4F4" transform="translate(349.09765625,226.734375)"/>
<path d="M0 0 C-0.1875 2.3125 -0.1875 2.3125 -1 5 C-4.61079257 7.99179956 -7.39611104 8.32120156 -12 8 C-11.05125 8.45375 -10.1025 8.9075 -9.125 9.375 C-6 11 -6 11 -4 13 C-3.67316064 16.52986508 -3.64625996 19.13775866 -5 22.4375 C-7.70901914 24.5539212 -9.70869784 24.35896731 -13.0625 24.23828125 C-15 24 -15 24 -18 23 C-19.83253493 22.9006457 -21.66607199 22.8190188 -23.5 22.75 C-28.69117647 22.31740196 -28.69117647 22.31740196 -31.25 19.6875 C-32.0554237 16.80139841 -32.14899701 15.72130871 -31 13 C-29.07421875 12.0234375 -29.07421875 12.0234375 -26.6875 11.375 C-23.58561559 10.50339612 -20.84532015 9.52358104 -18 8 C-19.19625 7.855625 -20.3925 7.71125 -21.625 7.5625 C-25.1005158 7.12960657 -28.54950034 6.60383744 -32 6 C-31.34 3.69 -30.68 1.38 -30 -1 C-5.96514161 -2.98257081 -5.96514161 -2.98257081 0 0 Z " fill="#F2F2F2" transform="translate(284,228)"/>
<path d="M0 0 C7.06894757 0.11981267 7.06894757 0.11981267 9.64453125 2.5546875 C13 7.21559798 13 7.21559798 13 10 C15.69802289 10.75758244 15.69802289 10.75758244 19 10 C21.08376282 7.82563879 22.76682814 5.53828112 24.484375 3.06640625 C26 1 26 1 28 0 C31.0625 -0.125 31.0625 -0.125 34 0 C35 1 35 1 35.375 3.1875 C34.7086368 8.18522403 30.85589361 11.2038199 27.3125 14.5 C22.73900653 19.44431726 22.68309052 25.06378681 22.24609375 31.51171875 C22 34 22 34 21 37 C17.625 37.625 17.625 37.625 14 38 C12 36 12 36 11.91015625 33.8984375 C12.01078855 32.2315537 12.11488977 30.56487527 12.22265625 28.8984375 C11.60272854 20.8285014 7.17089042 15.08686654 2.3203125 8.9375 C0.984375 7.171875 0.984375 7.171875 -1 4 C-0.62402344 1.80175781 -0.62402344 1.80175781 0 0 Z " fill="#F9F9F9" transform="translate(289,226)"/>
<path d="M0 0 C1.9140625 1.73828125 1.9140625 1.73828125 3 4 C2.56787109 6.64135742 2.56787109 6.64135742 2 9 C-2.08255655 9.22601462 -6.16596075 9.42774673 -10.25 9.625 C-11.98830078 9.72167969 -11.98830078 9.72167969 -13.76171875 9.8203125 C-14.87675781 9.871875 -15.99179687 9.9234375 -17.140625 9.9765625 C-18.68024902 10.05511475 -18.68024902 10.05511475 -20.25097656 10.13525391 C-23.06966869 9.99657225 -24.61827763 9.45992606 -27 8 C-26.67 5.69 -26.34 3.38 -26 1 C-17.61051221 -0.89440047 -8.44857485 -2.09311539 0 0 Z " fill="#E8E8E8" transform="translate(280,254)"/>
<path d="M0 0 C5.87293321 0.51819999 8.96550617 3.96550617 13 8 C15.98137235 12.47205852 15.47867268 16.75776214 15 22 C13.23260629 26.67839512 9.2508851 30.39551898 5 33 C2.0625 32.875 2.0625 32.875 0 32 C0 30.68 0 29.36 0 28 C0.5775 27.814375 1.155 27.62875 1.75 27.4375 C5.01005712 25.35468573 6.56928985 22.49973713 8 19 C8.6885664 14.18003523 7.62415951 11.07197165 5 7 C3.33675599 5.99431758 1.67063747 4.99335201 0 4 C0 2.68 0 1.36 0 0 Z " fill="#F9F9F9" transform="translate(347,229)"/>
<path d="M0 0 C0.85078125 0.04833984 1.7015625 0.09667969 2.578125 0.14648438 C3.46757812 0.20255859 4.35703125 0.25863281 5.2734375 0.31640625 C6.170625 0.36861328 7.0678125 0.42082031 7.9921875 0.47460938 C10.21127762 0.60444975 12.42993621 0.73941964 14.6484375 0.87890625 C14.6484375 1.20890625 14.6484375 1.53890625 14.6484375 1.87890625 C8.3784375 1.87890625 2.1084375 1.87890625 -4.3515625 1.87890625 C-4.3515625 3.19890625 -4.3515625 4.51890625 -4.3515625 5.87890625 C-3.18238281 5.84410156 -2.01320312 5.80929688 -0.80859375 5.7734375 C0.73956891 5.74528909 2.28774718 5.71799006 3.8359375 5.69140625 C4.60486328 5.66626953 5.37378906 5.64113281 6.16601562 5.61523438 C10.76151107 5.55606491 14.02994079 5.69577108 17.6484375 8.87890625 C18.52559468 11.79314557 18.04235107 13.77683687 17.6484375 16.87890625 C14.49528965 18.98100482 13.78740669 19.12238235 10.19921875 19.07421875 C8.92788086 19.06455078 8.92788086 19.06455078 7.63085938 19.0546875 C6.74978516 19.03792969 5.86871094 19.02117187 4.9609375 19.00390625 C4.06826172 18.99488281 3.17558594 18.98585937 2.25585938 18.9765625 C0.05327084 18.9530054 -2.14917975 18.91713469 -4.3515625 18.87890625 C-4.3515625 24.48890625 -4.3515625 30.09890625 -4.3515625 35.87890625 C-2.7015625 35.87890625 -1.0515625 35.87890625 0.6484375 35.87890625 C0.6484375 31.91890625 0.6484375 27.95890625 0.6484375 23.87890625 C0.9784375 23.87890625 1.3084375 23.87890625 1.6484375 23.87890625 C1.6484375 28.16890625 1.6484375 32.45890625 1.6484375 36.87890625 C-3.3515625 37.87890625 -3.3515625 37.87890625 -6.3515625 35.87890625 C-6.69213867 33.99951172 -6.69213867 33.99951172 -6.64453125 31.74609375 C-6.63486328 30.94042969 -6.62519531 30.13476562 -6.61523438 29.3046875 C-6.59009766 28.46292969 -6.56496094 27.62117188 -6.5390625 26.75390625 C-6.52552734 25.90441406 -6.51199219 25.05492187 -6.49804688 24.1796875 C-6.46264469 22.07915788 -6.40883651 19.97895332 -6.3515625 17.87890625 C-3.46470757 16.43547878 -0.75189563 16.56730275 2.4609375 16.37890625 C6.61881551 16.13355202 10.58457352 15.80778945 14.6484375 14.87890625 C14.30398869 12.4062386 14.30398869 12.4062386 13.6484375 9.87890625 C9.85084089 7.98010795 4.98710506 8.503299 0.76953125 8.36132812 C-5.13764881 8.09281994 -5.13764881 8.09281994 -7.3515625 5.87890625 C-7.1015625 3.31640625 -7.1015625 3.31640625 -6.3515625 0.87890625 C-3.94721244 -0.32326878 -2.66774881 -0.16006493 0 0 Z " fill="#ECECEC" transform="translate(220.3515625,226.12109375)"/>
<path d="M0 0 C7.02165107 0.11901104 7.02165107 0.11901104 9.609375 2.44921875 C12.07143507 5.78748256 13.61798697 8.79785664 14 13 C11.0444623 10.24829249 8.88436685 7.58029701 7 4 C7 3.34 7 2.68 7 2 C5.35 2 3.7 2 2 2 C2.36351562 2.60585937 2.72703125 3.21171875 3.1015625 3.8359375 C4.16430323 5.60717206 5.2183259 7.38365403 6.265625 9.1640625 C7.93272157 11.971885 7.93272157 11.971885 9.734375 14.3984375 C14.65761808 21.45508591 14.65637369 27.56438255 14 36 C15.65 36 17.3 36 19 36 C19 31.05 19 26.1 19 21 C19.66 21.33 20.32 21.66 21 22 C21 26.95 21 31.9 21 37 C17.535 37.495 17.535 37.495 14 38 C12 36 12 36 11.91015625 33.8984375 C12.01078855 32.2315537 12.11488977 30.56487527 12.22265625 28.8984375 C11.60272854 20.8285014 7.17089042 15.08686654 2.3203125 8.9375 C0.984375 7.171875 0.984375 7.171875 -1 4 C-0.62402344 1.80175781 -0.62402344 1.80175781 0 0 Z " fill="#EFEFEF" transform="translate(289,226)"/>
<path d="M0 0 C3.68069887 1.53643852 5.98775204 3.78150945 8.75 6.625 C9.54921875 7.44226563 10.3484375 8.25953125 11.171875 9.1015625 C12.07679688 10.04128906 12.07679688 10.04128906 13 11 C11.27762527 15.0101755 8.80418504 17.03540186 5.4609375 19.73046875 C3.17917448 23.27513269 3.73468136 26.8973877 4 31 C4.88042969 30.04996094 5.76085937 29.09992188 6.66796875 28.12109375 C7.84033448 26.89245446 9.01355652 25.66463186 10.1875 24.4375 C10.76564453 23.80908203 11.34378906 23.18066406 11.93945312 22.53320312 C13.56346673 20.85413821 15.08244999 19.33556985 17 18 C19.92578125 18.09765625 19.92578125 18.09765625 22 19 C22 19.66 22 20.32 22 21 C21.4112207 20.7738501 20.82244141 20.5477002 20.21582031 20.31469727 C17.96332293 19.7424552 17.96332293 19.7424552 16.26074219 21.17163086 C15.69516602 21.76339111 15.12958984 22.35515137 14.546875 22.96484375 C13.928125 23.59970703 13.309375 24.23457031 12.671875 24.88867188 C11.72054687 25.9028418 11.72054687 25.9028418 10.75 26.9375 C10.1003125 27.60974609 9.450625 28.28199219 8.78125 28.97460938 C7.17575886 30.63912593 5.58303096 32.31415428 4 34 C3.01 33.67 2.02 33.34 1 33 C0.06603774 23.59119497 0.06603774 23.59119497 2.37109375 19.6640625 C3.47443716 18.33393488 4.58607877 17.01063441 5.70703125 15.6953125 C7.21858057 14.02062696 7.21858057 14.02062696 7.25 11.5 C5.62462228 8.24924456 3.54222168 5.50696926 1.27734375 2.671875 C0 1 0 1 0 0 Z " fill="#EBEBEB" transform="translate(142,215)"/>
<path d="M0 0 C0.66 1.32 1.32 2.64 2 4 C1.01 5.485 1.01 5.485 0 7 C-0.33 6.67 -0.66 6.34 -1 6 C-2.78071246 5.91273777 -4.5648314 5.89300959 -6.34765625 5.90234375 C-7.42724609 5.90556641 -8.50683594 5.90878906 -9.61914062 5.91210938 C-11.32360352 5.92467773 -11.32360352 5.92467773 -13.0625 5.9375 C-14.20267578 5.94201172 -15.34285156 5.94652344 -16.51757812 5.95117188 C-19.34510351 5.96300253 -22.1725264 5.9794859 -25 6 C-25 4.35 -25 2.7 -25 1 C-12.625 0.505 -12.625 0.505 0 0 Z " fill="#FDFDFD" transform="translate(281,256)"/>
<path d="M0 0 C3.73328837 1.44514388 3.73328837 1.44514388 4.86889648 3.80761719 C5 6 5 6 3.46118164 8.10644531 C2.32217407 9.20617676 2.32217407 9.20617676 1.16015625 10.328125 C0.34482422 11.12734375 -0.47050781 11.9265625 -1.31054688 12.75 C-2.17744141 13.575 -3.04433594 14.4 -3.9375 15.25 C-4.80052734 16.09046875 -5.66355469 16.9309375 -6.55273438 17.796875 C-8.69110315 19.87617282 -10.84024089 21.94296615 -13 24 C-13 21.66666667 -13 19.33333333 -13 17 C-13.99 16.34 -14.98 15.68 -16 15 C-15.27296875 14.38125 -15.27296875 14.38125 -14.53125 13.75 C-9.45749491 9.37876484 -4.67847866 4.79046352 0 0 Z M-5.125 6.6875 C-5.84945312 7.37199219 -6.57390625 8.05648437 -7.3203125 8.76171875 C-9.30933949 11.41221285 -9.35142196 12.76351714 -9 16 C-5.89557969 14.6095501 -3.6343557 12.98428402 -1.1875 10.625 C-0.56230469 10.03976563 0.06289062 9.45453125 0.70703125 8.8515625 C2.2647811 7.06598379 2.2647811 7.06598379 1.69921875 4.7734375 C1.46847656 4.18820313 1.23773438 3.60296875 1 3 C-2.00565098 3 -3.00610991 4.63316391 -5.125 6.6875 Z " fill="#FDFDFD" transform="translate(160,234)"/>
<path d="M0 0 C7.92 0 15.84 0 24 0 C24 1.32 24 2.64 24 4 C16.08 4 8.16 4 0 4 C0 2.68 0 1.36 0 0 Z " fill="#FDFDFD" transform="translate(256,228)"/>
<path d="M0 0 C7.26 0 14.52 0 22 0 C22 1.32 22 2.64 22 4 C14.74 4 7.48 4 0 4 C0 2.68 0 1.36 0 0 Z " fill="#FEFEFE" transform="translate(256,243)"/>
<path d="M0 0 C2.475 0.495 2.475 0.495 5 1 C5.33 1.99 5.66 2.98 6 4 C7.32200834 4.68885135 8.65788491 5.35119393 10 6 C12.39453125 7.98828125 12.39453125 7.98828125 14.8125 10.3125 C15.62332031 11.07175781 16.43414062 11.83101562 17.26953125 12.61328125 C19 15 19 15 19.125 17.4140625 C17.55100606 21.03206246 15.01599424 23.40765594 12.1875 26.0625 C11.65318359 26.57876953 11.11886719 27.09503906 10.56835938 27.62695312 C9.52906487 28.63045397 8.4860623 29.6301321 7.43896484 30.62548828 C5.5952225 32.38664699 3.79414287 34.18848044 2 36 C2 33 2 33 3.37695312 31.2824707 C4.00537109 30.66976318 4.63378906 30.05705566 5.28125 29.42578125 C5.95800781 28.75869141 6.63476562 28.09160156 7.33203125 27.40429688 C8.04746094 26.71400391 8.76289063 26.02371094 9.5 25.3125 C10.21542969 24.61060547 10.93085938 23.90871094 11.66796875 23.18554688 C13.43879577 21.45013639 15.21623456 19.7220927 17 18 C13.55643993 13.90545148 10.06602335 9.9443092 6.25 6.1875 C5.49203125 5.43855469 4.7340625 4.68960938 3.953125 3.91796875 C3.30859375 3.28503906 2.6640625 2.65210938 2 2 C1.34 1.34 0.68 0.68 0 0 Z " fill="#ECECEC" transform="translate(179,215)"/>
<path d="M0 0 C0.66 0 1.32 0 2 0 C1.690625 0.598125 1.38125 1.19625 1.0625 1.8125 C-0.10209704 4.08956772 -0.10209704 4.08956772 -1 7 C-0.05552123 8.97930142 -0.05552123 8.97930142 1.375 10.9375 C3.23160962 13.62906534 4.37958012 15.77525948 5 19 C2.15916359 20.42041821 0.14522722 20.31452272 -3 20 C-5.375 18 -5.375 18 -7 16 C-6.67 15.01 -6.34 14.02 -6 13 C-4.5 14.375 -4.5 14.375 -3 16 C-3 16.66 -3 17.32 -3 18 C-1.68 17.34 -0.36 16.68 1 16 C-1.31 12.37 -3.62 8.74 -6 5 C-4.35 4.34 -2.7 3.68 -1 3 C-0.67 2.01 -0.34 1.02 0 0 Z " fill="#EEEEEE" transform="translate(241,244)"/>
<path d="M0 0 C0.33 0 0.66 0 1 0 C1.33 1.98 1.66 3.96 2 6 C9.92 6.33 17.84 6.66 26 7 C25.34 8.32 24.68 9.64 24 11 C22.741875 11.020625 21.48375 11.04125 20.1875 11.0625 C19.47980469 11.07410156 18.77210938 11.08570313 18.04296875 11.09765625 C16 11 16 11 13 10 C11.16746507 9.9006457 9.33392801 9.8190188 7.5 9.75 C2.30882353 9.31740196 2.30882353 9.31740196 -0.25 6.6875 C-1.02499446 3.91043651 -1.07519782 2.63912193 0 0 Z " fill="#FEFEFE" transform="translate(253,241)"/>
<path d="M0 0 C0.68449219 0.29777344 1.36898437 0.59554687 2.07421875 0.90234375 C2.07421875 1.56234375 2.07421875 2.22234375 2.07421875 2.90234375 C1.48543945 2.67619385 0.89666016 2.45004395 0.29003906 2.21704102 C-1.96245832 1.64479895 -1.96245832 1.64479895 -3.66503906 3.07397461 C-4.23061523 3.66573486 -4.79619141 4.25749512 -5.37890625 4.8671875 C-5.99765625 5.50205078 -6.61640625 6.13691406 -7.25390625 6.79101562 C-8.20523438 7.80518555 -8.20523438 7.80518555 -9.17578125 8.83984375 C-9.82546875 9.51208984 -10.47515625 10.18433594 -11.14453125 10.87695312 C-12.75002239 12.54146968 -14.34275029 14.21649803 -15.92578125 15.90234375 C-16.91578125 15.57234375 -17.90578125 15.24234375 -18.92578125 14.90234375 C-18.92578125 11.27234375 -18.92578125 7.64234375 -18.92578125 3.90234375 C-18.26578125 3.57234375 -17.60578125 3.24234375 -16.92578125 2.90234375 C-16.59578125 6.20234375 -16.26578125 9.50234375 -15.92578125 12.90234375 C-15.04535156 11.95230469 -14.16492188 11.00226563 -13.2578125 10.0234375 C-12.08544677 8.79479821 -10.91222473 7.56697561 -9.73828125 6.33984375 C-9.16013672 5.71142578 -8.58199219 5.08300781 -7.98632812 4.43554688 C-3.58061432 -0.11951316 -3.58061432 -0.11951316 0 0 Z " fill="#E7E7E7" transform="translate(161.92578125,233.09765625)"/>
<path d="M0 0 C0.721875 0.165 1.44375 0.33 2.1875 0.5 C-0.16537886 5.72861968 -3.29703819 10.01750177 -6.8125 14.5 C-7.4725 14.17 -8.1325 13.84 -8.8125 13.5 C-8.31071794 8.14765799 -5.70797011 1.01475024 0 0 Z " fill="#FCFCFC" transform="translate(318.8125,227.5)"/>
<path d="M0 0 C3.51423905 1.49137007 5.68476369 3.50557913 8.3125 6.25 C11.60517159 9.64063537 14.94553614 12.72885078 18.6875 15.61328125 C20.30378629 17.32096468 20.60964989 18.71157245 21 21 C17.71023192 22.09658936 16.28696233 21.79953138 13 21 C13 20.67 13 20.34 13 20 C14.65 20 16.3 20 18 20 C13.45038611 14.58083534 8.61880885 9.53112695 3.55737305 4.59448242 C2.35450174 3.41347003 1.1748744 2.20886715 0 1 C0 0.67 0 0.34 0 0 Z " fill="#EAEAEA" transform="translate(180,253)"/>
<path d="M0 0 C1.05703125 0.07863281 2.1140625 0.15726563 3.203125 0.23828125 C4.46382813 0.46064453 4.46382813 0.46064453 5.75 0.6875 C6.08 1.3475 6.41 2.0075 6.75 2.6875 C-6.615 3.1825 -6.615 3.1825 -20.25 3.6875 C-19.92 2.6975 -19.59 1.7075 -19.25 0.6875 C-17.32942708 0.72005208 -15.40885417 0.75260417 -13.48828125 0.78515625 C-11.20909538 0.7500456 -11.20909538 0.7500456 -8.87109375 0.1640625 C-5.7955166 -0.39513335 -3.11223125 -0.25679741 0 0 Z " fill="#FEFEFE" transform="translate(274.25,253.3125)"/>
<path d="M0 0 C3.875 0.875 3.875 0.875 5 2 C5.25 4.9375 5.25 4.9375 5 8 C1.89914429 10.06723714 1.27068319 10.24497423 -2.23046875 10.1953125 C-3.43413086 10.18564453 -3.43413086 10.18564453 -4.66210938 10.17578125 C-5.49548828 10.15902344 -6.32886719 10.14226562 -7.1875 10.125 C-8.03248047 10.11597656 -8.87746094 10.10695312 -9.74804688 10.09765625 C-11.83215243 10.07410703 -13.91611217 10.03823647 -16 10 C-16 9.67 -16 9.34 -16 9 C-15.04738281 8.93941406 -14.09476563 8.87882813 -13.11328125 8.81640625 C-11.23189453 8.69072266 -11.23189453 8.69072266 -9.3125 8.5625 C-8.07113281 8.48128906 -6.82976562 8.40007812 -5.55078125 8.31640625 C-2.61819663 8.05508683 0.13441617 7.65201621 3 7 C2.42547254 3.06924356 2.42547254 3.06924356 0 0 Z " fill="#FDFDFD" transform="translate(232,234)"/>
<path d="M0 0 C5.8845041 3.94291645 10.05708355 8.1154959 14 14 C10.52074915 12.53871465 8.60308978 10.6239874 6.125 7.8125 C4.12665104 5.64469742 4.12665104 5.64469742 2 4 C-1.40715233 3.78335544 -1.40715233 3.78335544 -4 5 C-2.68 3.35 -1.36 1.7 0 0 Z " fill="#ECECEC" transform="translate(166,251)"/>
<path d="M0 0 C0.66 1.32 1.32 2.64 2 4 C1.01 5.485 1.01 5.485 0 7 C-0.33 5.35 -0.66 3.7 -1 2 C-8.92 2 -16.84 2 -25 2 C-25 1.67 -25 1.34 -25 1 C-12.625 0.505 -12.625 0.505 0 0 Z " fill="#F4F4F4" transform="translate(281,256)"/>
<path d="M0 0 C2.64 0 5.28 0 8 0 C8 2.64 8 5.28 8 8 C6.35 7.67 4.7 7.34 3 7 C3 5.02 3 3.04 3 1 C2.01 0.67 1.02 0.34 0 0 Z " fill="#FBFBFB" transform="translate(339,226)"/>
<path d="M0 0 C0.33 0 0.66 0 1 0 C1.3125 2.1875 1.3125 2.1875 1 5 C-1.375 7.8125 -1.375 7.8125 -4 10 C-4.66 10 -5.32 10 -6 10 C-6 11.32 -6 12.64 -6 14 C-5.01 14.33 -4.02 14.66 -3 15 C-4.32 15.33 -5.64 15.66 -7 16 C-7 13.69 -7 11.38 -7 9 C-6.34 9 -5.68 9 -5 9 C-5 8.34 -5 7.68 -5 7 C-3.66666667 5.66666667 -2.33333333 4.33333333 -1 3 C-0.67 2.01 -0.34 1.02 0 0 Z " fill="#E9E9E9" transform="translate(353,247)"/>
<path d="M0 0 C3.35250701 0.57575664 4.93818629 1.59306263 7.25 4.0625 C8.03117188 4.88427734 8.03117188 4.88427734 8.828125 5.72265625 C9.21484375 6.14417969 9.6015625 6.56570312 10 7 C9.67 7.99 9.34 8.98 9 10 C8.01 9.34 7.02 8.68 6 8 C6 7.34 6 6.68 6 6 C5.34 6 4.68 6 4 6 C4 5.34 4 4.68 4 4 C3.34 4 2.68 4 2 4 C1.34 2.68 0.68 1.36 0 0 Z " fill="#F0F0F0" transform="translate(167,227)"/>
<path d="M0 0 C0.99 0.33 1.98 0.66 3 1 C3 1.66 3 2.32 3 3 C3.66 3 4.32 3 5 3 C5 3.66 5 4.32 5 5 C5.99 5.33 6.98 5.66 8 6 C8 6.66 8 7.32 8 8 C8.99 8.33 9.98 8.66 11 9 C10.67 9.66 10.34 10.32 10 11 C5.03342803 7.90968855 1.87117169 5.61351507 0 0 Z " fill="#EEEEEE" transform="translate(172,219)"/>
<path d="M0 0 C3.26615387 1.20821139 5.07510336 2.95580867 7.25 5.625 C7.77078125 6.25664062 8.2915625 6.88828125 8.828125 7.5390625 C9.40820312 8.26222656 9.40820312 8.26222656 10 9 C6.73367237 8.40797812 6.16092229 8.20618169 4 5.4375 C3.34 4.633125 2.68 3.82875 2 3 C0.68 3 -0.64 3 -2 3 C-2 2.34 -2 1.68 -2 1 C-1.34 0.67 -0.68 0.34 0 0 Z " fill="#ECECEC" transform="translate(153,264)"/>
<path d="M0 0 C0.33 0 0.66 0 1 0 C1.33 4.29 1.66 8.58 2 13 C1.01 12.67 0.02 12.34 -1 12 C-1.02687279 10.18757948 -1.04633715 8.37504767 -1.0625 6.5625 C-1.07410156 5.55316406 -1.08570313 4.54382813 -1.09765625 3.50390625 C-1 1 -1 1 0 0 Z " fill="#EAEAEA" transform="translate(144,261)"/>
<path d="M0 0 C2.3203125 0.22265625 2.3203125 0.22265625 5 1 C6.6171875 2.99609375 6.6171875 2.99609375 7.875 5.4375 C8.30554688 6.24058594 8.73609375 7.04367188 9.1796875 7.87109375 C9.45039063 8.57363281 9.72109375 9.27617187 10 10 C9.67 10.66 9.34 11.32 9 12 C7.9944239 10.54550599 6.99569565 9.08627557 6 7.625 C5.443125 6.81289062 4.88625 6.00078125 4.3125 5.1640625 C3 3 3 3 3 1 C2.01 0.67 1.02 0.34 0 0 Z " fill="#EAEAEA" transform="translate(293,227)"/>
<path d="M0 0 C0 4.24645065 -1.81750806 6.38524772 -4 10 C-5.32 10 -6.64 10 -8 10 C-6.74349289 7.48698578 -4.9845146 5.9845146 -3 4 C-1.97676564 2.68441297 -0.96873032 1.35622245 0 0 Z " fill="#E9E9E9" transform="translate(318,233)"/>
<path d="M0 0 C1.65 1.32 3.3 2.64 5 4 C3.50902342 7.7952131 1.24299151 9.61042731 -2 12 C-1.690625 11.443125 -1.38125 10.88625 -1.0625 10.3125 C0.68075022 6.51836716 1.335163 4.00548901 0 0 Z " fill="#FCFCFC" transform="translate(148,222)"/>
<path d="M0 0 C-0.53625 0.2475 -1.0725 0.495 -1.625 0.75 C-4.56424252 2.29696975 -7.25754408 4.13014369 -10 6 C-10 4.68 -10 3.36 -10 2 C-3.75 -1.125 -3.75 -1.125 0 0 Z " fill="#F4F4F4" transform="translate(156,267)"/>
<path d="M0 0 C0.33 0 0.66 0 1 0 C1.38613383 2.62571005 1.38493778 4.3843879 -0.04296875 6.66796875 C-1.375 8.3125 -1.375 8.3125 -4 11 C-4.66 11 -5.32 11 -6 11 C-4.18690997 7.22272911 -2.0926741 3.62730178 0 0 Z " fill="#FEFEFE" transform="translate(323,227)"/>
<path d="M0 0 C1.17219543 0.78345715 2.33763668 1.57702836 3.5 2.375 C4.47453125 3.03628906 4.47453125 3.03628906 5.46875 3.7109375 C5.9740625 4.13632812 6.479375 4.56171875 7 5 C7 5.66 7 6.32 7 7 C7.66 7.33 8.32 7.66 9 8 C5.41209425 7.70100785 4.21833224 7.23013399 1.6875 4.5625 C0 2 0 2 0 0 Z " fill="#EFEFEF" transform="translate(180,265)"/>
<path d="M0 0 C0.66 0.33 1.32 0.66 2 1 C1.360625 1.886875 0.72125 2.77375 0.0625 3.6875 C-1.80829757 6.69211428 -2.59423966 8.5510371 -3 12 C-3.33 12 -3.66 12 -4 12 C-4.49230769 4.61538462 -4.49230769 4.61538462 -2 1.5 C-1.34 1.005 -0.68 0.51 0 0 Z " fill="#FDFDFD" transform="translate(329,231)"/>
<path d="M0 0 C2.475 0.99 2.475 0.99 5 2 C5 3.65 5 5.3 5 7 C3.68 7.33 2.36 7.66 1 8 C0.67 7.34 0.34 6.68 0 6 C0.99 6 1.98 6 3 6 C3 4.68 3 3.36 3 2 C2.01 1.67 1.02 1.34 0 1 C0 0.67 0 0.34 0 0 Z " fill="#E5E5E5" transform="translate(337,255)"/>
<path d="M0 0 C1.32 0.33 2.64 0.66 4 1 C3.67 2.65 3.34 4.3 3 6 C2.01 6 1.02 6 0 6 C0 4.02 0 2.04 0 0 Z " fill="#F6F6F6" transform="translate(280,227)"/>
<path d="M0 0 C3 3.75 3 3.75 3 6 C3.99 6.33 4.98 6.66 6 7 C4.68 7.33 3.36 7.66 2 8 C-0.1519437 4.77208445 -0.20086443 3.71599191 0 0 Z " fill="#F3F3F3" transform="translate(333,247)"/>
<path d="M0 0 C4.75 0.75 4.75 0.75 7 3 C7 3.99 7 4.98 7 6 C6.34 6 5.68 6 5 6 C5 5.34 5 4.68 5 4 C4.34 4 3.68 4 3 4 C1.375 2 1.375 2 0 0 Z " fill="#F0F0F0" transform="translate(154,215)"/>
<path d="M0 0 C1.5 1.375 1.5 1.375 3 3 C3 3.66 3 4.32 3 5 C-0.28976808 6.09658936 -1.71303767 5.79953138 -5 5 C-5 4.67 -5 4.34 -5 4 C-3.35 4 -1.7 4 0 4 C0 2.68 0 1.36 0 0 Z " fill="#F2F2F2" transform="translate(198,269)"/>
</svg>
